<svg xmlns="http://www.w3.org/2000/svg" xml:space="preserve" viewBox="0 0 1000 1000"><path fill="#0078b5" d="M500 1000C223.9 1000 0 776.1 0 500S223.9 0 500 0s500 223.9 500 500-223.9 500-500 500"/><path fill="#fff" d="M184.2 387.3h132.9V815H184.2zm66.5-212.6c42.5 0 77 34.5 77 77.1s-34.5 77.1-77 77.1c-42.6 0-77.1-34.5-77.1-77.1-.1-42.5 34.4-77.1 77.1-77.1m149.8 212.6H528v58.4h1.8c17.7-33.6 61-69.1 125.8-69.1 134.6 0 159.5 88.6 159.5 203.7V815H682.2V607.1c0-49.7-.9-113.4-69.1-113.4-69.2 0-79.8 54-79.8 109.8v211.6H400.5z"/></svg>