<svg xmlns="http://www.w3.org/2000/svg" xml:space="preserve" viewBox="0 0 1000 1000"><path fill="#bd081c" d="M500 1000C223.9 1000 0 776.1 0 500S223.9 0 500 0s500 223.9 500 500-223.9 500-500 500"/><path fill="#fff" d="M500.5 150.5c-193.3 0-350 156.7-350 350 0 148.3 92.3 275 222.5 326-3.1-27.7-5.8-70.3 1.2-100.5 6.4-27.3 41-174 41-174s-10.5-21-10.5-52c0-48.7 28.2-85 63.3-85 29.9 0 44.3 22.4 44.3 49.3 0 30-19.1 74.9-29 116.5-8.2 34.8 17.5 63.2 51.8 63.2 62.2 0 110-65.6 110-160.3 0-83.8-60.2-142.4-146.2-142.4-99.6 0-158 74.7-158 151.9 0 30.1 11.6 62.3 26 79.9 2.9 3.5 3.3 6.5 2.4 10-2.7 11.1-8.6 34.8-9.7 39.7-1.5 6.4-5.1 7.8-11.7 4.7-43.7-20.3-71-84.3-71-135.6 0-110.4 80.2-211.8 231.3-211.8 121.4 0 215.8 86.5 215.8 202.1 0 120.8-76 217.9-181.6 217.9-35.5 0-68.8-18.4-80.2-40.2 0 0-17.5 66.8-21.8 83.2-7.9 30.4-29.2 68.5-43.5 91.8 32.7 10.1 67.5 15.6 103.6 15.6 193.3 0 350-156.7 350-350s-156.7-350-350-350"/></svg>