<svg xmlns="http://www.w3.org/2000/svg" xml:space="preserve" viewBox="0 0 64 64"><path fill="#fefe00" d="M58 62H6c-2.2 0-4-1.8-4-4V6c0-2.2 1.8-4 4-4h52c2.2 0 4 1.8 4 4v52c0 2.2-1.8 4-4 4"/><path fill="#fff" d="M52 42.1s-.4 1.6-2.5 2c-2 .3-3.2.5-3.2.5l-.5 2.7s-1.5-.4-3.2-.4c-.7 0-1.5.1-2.2.3-1.9.5-3.8 2.6-6.4 3.5-.6.2-1.3.3-2 .4-.7 0-1.4-.2-2-.4-2.6-.9-4.5-3-6.4-3.5-.7-.2-1.5-.3-2.2-.3-1.7 0-3.2.4-3.2.4l-.5-2.7s-1.1-.1-3.2-.5c-2-.3-2.5-2-2.5-2s.5-.1 2.6-.7 4.9-3.8 6.1-5.7c1.2-2 .7-3-.3-3.7s-4.2-.9-4.1-2.3 1.8-1.3 1.8-1.3c1.9 1 3.3.4 3.3.4v-5c0-5.9 4.8-10.7 10.6-10.8 5.9.1 10.6 4.9 10.6 10.8v5s1.3.6 3.3-.4c0 0 1.7-.1 1.8 1.3s-3.1 1.5-4.1 2.3c-1 .7-1.4 1.8-.3 3.7 1.2 2 4 5.1 6.1 5.7s2.6.7 2.6.7"/><path d="M32 51.4c-.8 0-1.5-.2-2.2-.4-1.4-.5-2.7-1.3-3.7-2-.9-.6-1.8-1.2-2.7-1.5-.6-.2-1.3-.3-2-.2-1.6 0-3.1.4-3.1.4-.1 0-.3 0-.4-.1s-.2-.2-.2-.3l-.5-2.3c-.5-.1-1.4-.2-2.8-.4-2.3-.4-2.8-2.3-2.9-2.3 0-.1 0-.3.1-.4s.2-.2.3-.2c0 0 .6-.1 2.5-.7s4.6-3.6 5.8-5.5c1.1-1.8.6-2.6-.1-3.1-.3-.2-.9-.4-1.5-.6-1.3-.4-2.9-.8-2.8-2.2.2-1.5 1.6-1.8 2.4-1.7.1 0 .1 0 .2.1 1.2.6 2.1.6 2.5.5v-4.6c0-6.1 5-11.2 11.1-11.3 6.1.1 11.1 5.1 11.1 11.3v4.6c.4.1 1.4.2 2.5-.5.1 0 .1-.1.2-.1.8-.1 2.2.2 2.4 1.7.1 1.3-1.5 1.8-2.8 2.2-.6.2-1.2.3-1.5.6-.7.5-1.2 1.2-.1 3.1s3.9 5 5.8 5.5c1.9.6 2.5.7 2.5.7.1 0 .3.1.3.2s.1.3.1.4-.5 2-2.9 2.3c-1.4.2-2.3.4-2.8.4l-.5 2.3c0 .1-.1.3-.2.3-.1.1-.3.1-.4.1 0 0-1.5-.4-3.1-.4-.8 0-1.5.1-2 .2-.8.2-1.7.8-2.7 1.5-1.1.7-2.3 1.6-3.7 2-.8.3-1.5.4-2.2.4m-10.5-5.1c.8 0 1.6.1 2.2.3 1 .3 1.9.9 3 1.6s2.2 1.5 3.5 1.9c.6.2 1.2.3 1.9.3q.9 0 1.8-.3c1.3-.4 2.4-1.2 3.5-1.9 1-.7 2-1.3 3-1.6.7-.2 1.4-.3 2.3-.3 1.2 0 2.2.2 2.8.3l.4-2.2c0-.2.2-.4.4-.4 0 0 1.1-.1 3.1-.5 1-.2 1.6-.7 1.8-1.1-.4-.1-1-.3-2-.6-2.2-.6-5.1-3.9-6.3-6-1.1-1.9-1-3.4.4-4.4.4-.3 1.1-.5 1.8-.7.9-.3 2.1-.6 2.1-1.1-.1-.8-.9-.8-1.2-.8-2.1 1.1-3.6.4-3.6.4-.2-.1-.3-.3-.3-.5v-5c0-5.6-4.5-10.2-10.1-10.3-5.6.1-10.1 4.7-10.1 10.3v5c0 .2-.1.4-.3.5-.1 0-1.6.7-3.6-.4-.3 0-1.1.1-1.2.8-.1.5 1.2.8 2.1 1.1.7.2 1.4.4 1.8.7 1.4 1 1.5 2.5.4 4.4-1.2 2-4.2 5.3-6.3 6-1 .3-1.6.5-2 .6.3.4.8 1 1.8 1.1 2 .3 3.1.5 3.1.5.2 0 .4.2.4.4l.4 2.2c.6-.1 1.7-.3 2.8-.3z"/></svg>